<svg width="220" height="55" viewBox="0 0 220 55" fill="none" xmlns="http://www.w3.org/2000/svg">
<path d="M56.8164 15.9038H61.6965V34.4975H70.7411V38.6942H56.8164V15.9038Z" fill="white"/>
<path d="M72.938 34.8231C72.1909 33.4464 71.8148 31.899 71.8465 30.3329C71.8148 28.7669 72.1909 27.2195 72.938 25.8427C73.6485 24.5564 74.7242 23.5094 76.0294 22.834C77.4757 22.1367 79.0607 21.7746 80.6663 21.7746C82.272 21.7746 83.857 22.1367 85.3033 22.834C86.6065 23.512 87.6815 24.5584 88.3946 25.8427C89.1382 27.2207 89.5126 28.7675 89.4816 30.3329C89.5165 31.9046 89.1419 33.4584 88.3946 34.8415C87.6768 36.1176 86.6025 37.1568 85.3033 37.8319C83.857 38.5292 82.272 38.8913 80.6663 38.8913C79.0607 38.8913 77.4757 38.5292 76.0294 37.8319C74.7242 37.1565 73.6485 36.1095 72.938 34.8231ZM84.8309 30.3329C84.8825 29.0728 84.4769 27.8365 83.6889 26.8518C83.3179 26.4175 82.853 26.0733 82.3293 25.8453C81.8056 25.6172 81.237 25.5113 80.6663 25.5354C80.0961 25.5125 79.5282 25.6209 79.0065 25.8524C78.4848 26.0838 78.0233 26.432 77.6576 26.8701C76.8742 27.8564 76.475 29.0932 76.5339 30.3513C76.475 31.6094 76.8742 32.8462 77.6576 33.8325C78.0233 34.2706 78.4848 34.6188 79.0065 34.8502C79.5282 35.0816 80.0961 35.1901 80.6663 35.1671C81.2399 35.1869 81.8105 35.0752 82.3343 34.8407C82.8582 34.6062 83.3215 34.2551 83.6889 33.8141C84.4769 32.8294 84.8825 31.5931 84.8309 30.3329Z" fill="white"/>
<path d="M92.4582 34.8232C91.7111 33.4464 91.3349 31.899 91.3667 30.333C91.3349 28.7669 91.7111 27.2195 92.4582 25.8428C93.1687 24.5564 94.2444 23.5094 95.5496 22.834C96.9951 22.1368 98.5793 21.7747 100.184 21.7747C101.789 21.7747 103.373 22.1368 104.819 22.834C106.124 23.5094 107.2 24.5564 107.91 25.8428C108.657 27.2195 109.034 28.7669 109.002 30.333C109.037 31.9053 108.661 33.4596 107.91 34.8415C107.195 36.1196 106.12 37.1594 104.819 37.8319C103.373 38.5292 101.789 38.8913 100.184 38.8913C98.5793 38.8913 96.9951 38.5292 95.5496 37.8319C94.2444 37.1566 93.1687 36.1096 92.4582 34.8232ZM104.351 30.333C104.408 29.0751 104.009 27.839 103.227 26.8518C102.843 26.4313 102.376 26.0954 101.854 25.8657C101.333 25.6359 100.77 25.5172 100.2 25.5172C99.6307 25.5172 99.0674 25.6359 98.5462 25.8657C98.025 26.0954 97.5574 26.4313 97.1732 26.8518C96.3999 27.8422 96.0091 29.078 96.0724 30.333C96.0143 31.5902 96.4117 32.8263 97.1915 33.8141C97.5757 34.2346 98.0433 34.5705 98.5645 34.8003C99.0857 35.03 99.649 35.1487 100.219 35.1487C100.788 35.1487 101.352 35.03 101.873 34.8003C102.394 34.5705 102.862 34.2346 103.246 33.8141C104.021 32.8243 104.413 31.5885 104.351 30.333Z" fill="white"/>
<path d="M116.125 15.9038V29.0946L122.697 21.9717H127.839L121.876 28.5121L128.178 38.6942H122.862L118.634 31.9291L116.125 34.6259V38.6942H111.538V15.9038H116.125Z" fill="white"/>
<path d="M133.824 34.9195C134.564 35.4108 135.44 35.6578 136.328 35.6258C137.119 35.6666 137.907 35.5089 138.622 35.1672C138.885 35.0481 139.107 34.854 139.26 34.6093C139.414 34.3645 139.491 34.08 139.484 33.7912C139.498 33.6094 139.47 33.4268 139.402 33.2574C139.335 33.0881 139.229 32.9365 139.094 32.8143C138.768 32.5749 138.389 32.4176 137.989 32.3556C137.53 32.2593 136.732 32.1446 135.645 32.0162C134.404 31.8671 133.176 31.6171 131.976 31.2686C131.08 31.011 130.27 30.5167 129.632 29.8376C129.019 29.1122 128.704 28.1811 128.751 27.2325C128.739 26.1987 129.061 25.1886 129.669 24.3521C130.309 23.4826 131.182 22.8116 132.187 22.4166C133.376 21.9423 134.649 21.7099 135.929 21.7332C138.207 21.7546 140.042 22.2423 141.433 23.1963C142.101 23.6282 142.656 24.2146 143.049 24.9059C143.443 25.5973 143.664 26.3733 143.694 27.1683H139.337C139.302 26.8518 139.194 26.5476 139.023 26.2795C138.851 26.0114 138.619 25.7866 138.346 25.6226C137.66 25.1968 136.861 24.9874 136.053 25.0218C135.323 24.9879 134.598 25.1561 133.957 25.5079C133.718 25.6317 133.517 25.8185 133.377 26.048C133.236 26.2776 133.161 26.5413 133.159 26.8105C133.149 26.9804 133.182 27.1502 133.256 27.3036C133.33 27.4569 133.442 27.5888 133.581 27.6865C133.916 27.904 134.292 28.0493 134.686 28.1131C135.145 28.1956 135.902 28.2965 136.98 28.402C139.236 28.665 140.967 29.1481 142.172 29.8514C143.373 30.5577 143.974 31.764 143.974 33.4793C143.99 34.5147 143.652 35.5243 143.015 36.3413C142.317 37.2085 141.394 37.867 140.346 38.2447C139.082 38.7127 137.741 38.9399 136.393 38.9143C134.072 38.9143 132.185 38.3991 130.733 37.3687C130.042 36.8997 129.474 36.2724 129.075 35.5392C128.676 34.806 128.458 33.9881 128.44 33.1537H132.765C132.796 33.5091 132.907 33.8527 133.091 34.1586C133.274 34.4646 133.525 34.7247 133.824 34.9195Z" fill="white"/>
<path d="M154.546 38.8914C152.963 38.9272 151.396 38.5628 149.992 37.8319C148.713 37.1482 147.667 36.1012 146.983 34.8232C146.26 33.4385 145.898 31.8945 145.928 30.333C145.893 28.7666 146.256 27.2171 146.983 25.829C147.674 24.5534 148.727 23.5112 150.01 22.834C151.426 22.1014 153.003 21.7371 154.596 21.7745C156.832 21.7745 158.652 22.3448 160.059 23.4853C161.498 24.6743 162.429 26.3669 162.664 28.2186H157.899C157.74 27.4501 157.329 26.7572 156.729 26.251C156.114 25.7508 155.338 25.4901 154.546 25.5171C153.998 25.4986 153.452 25.6098 152.955 25.8418C152.458 26.0737 152.022 26.4198 151.684 26.8518C150.933 27.8523 150.553 29.0831 150.611 30.333C150.553 31.5828 150.933 32.8137 151.684 33.8141C152.02 34.2495 152.455 34.5991 152.953 34.8343C153.45 35.0695 153.996 35.1835 154.546 35.1672C155.355 35.1956 156.147 34.93 156.775 34.4196C157.388 33.8918 157.796 33.1666 157.931 32.3694H162.65C162.436 34.2413 161.51 35.9591 160.064 37.1669C158.642 38.3166 156.803 38.8914 154.546 38.8914Z" fill="white"/>
<path d="M165.329 34.8232C164.582 33.4464 164.206 31.899 164.237 30.333C164.206 28.7669 164.582 27.2195 165.329 25.8428C166.039 24.5564 167.115 23.5094 168.42 22.834C169.866 22.1368 171.45 21.7747 173.055 21.7747C174.66 21.7747 176.244 22.1368 177.69 22.834C178.995 23.5094 180.07 24.5564 180.781 25.8428C181.528 27.2195 181.904 28.7669 181.872 30.333C181.908 31.9053 181.532 33.4596 180.781 34.8415C180.072 36.1163 179.005 37.1558 177.712 37.8319C176.267 38.5292 174.683 38.8913 173.078 38.8913C171.473 38.8913 169.889 38.5292 168.443 37.8319C167.13 37.1602 166.045 36.1129 165.329 34.8232ZM177.222 30.333C177.279 29.0751 176.88 27.839 176.098 26.8518C175.714 26.4313 175.246 26.0954 174.725 25.8657C174.204 25.6359 173.641 25.5172 173.071 25.5172C172.501 25.5172 171.938 25.6359 171.417 25.8657C170.896 26.0954 170.428 26.4313 170.044 26.8518C169.264 27.8397 168.867 29.0757 168.925 30.333C168.867 31.5902 169.264 32.8263 170.044 33.8141C170.428 34.2346 170.896 34.5705 171.417 34.8003C171.938 35.03 172.501 35.1487 173.071 35.1487C173.641 35.1487 174.204 35.03 174.725 34.8003C175.246 34.5705 175.714 34.2346 176.098 33.8141C176.881 32.8275 177.282 31.5914 177.226 30.333H177.222Z" fill="white"/>
<path d="M200.159 38.6942H196.095L195.669 36.6761C195.081 37.4051 194.331 37.9855 193.477 38.3703C192.624 38.7552 191.692 38.9337 190.757 38.8914C189.878 38.9249 189.002 38.7823 188.18 38.472C187.357 38.1616 186.605 37.6898 185.968 37.0843C184.745 35.8826 184.134 33.8707 184.134 31.0484V21.9717H188.72V30.4935C188.72 32.0162 188.986 33.1582 189.518 33.9288C189.795 34.3157 190.166 34.6251 190.597 34.8275C191.027 35.0298 191.502 35.1184 191.977 35.0846C192.492 35.1078 193.006 35.0026 193.471 34.7785C193.936 34.5543 194.338 34.2183 194.641 33.8004C195.274 32.9427 195.586 31.741 195.586 30.2045V21.9717H200.173L200.159 38.6942Z" fill="white"/>
<path d="M201.787 25.8428V21.9717H204.539V17.2797H209.126V21.9717H212.932V25.8428H209.126V33.1812C209.084 33.6364 209.217 34.0904 209.497 34.4516C209.67 34.5972 209.87 34.7067 210.086 34.7737C210.302 34.8407 210.529 34.8637 210.754 34.8415H213.125V38.7125H209.359C206.167 38.7125 204.573 37.1179 204.576 33.9288V25.8428H201.787Z" fill="white"/>
<path d="M30.6907 12.375L6.875 26.125V17.875L23.5513 8.25L30.6907 12.375Z" fill="white"/>
<path d="M40.2276 17.875V22.6346L11 39.5048L6.875 37.125V32.6474L36.3317 15.6362L40.2276 17.875Z" fill="white"/>
<path d="M16.641 42.766L40.2276 29.157V37.125L23.5513 46.75L16.641 42.766Z" fill="white"/>
</svg>
