<svg width="220" height="55" viewBox="0 0 220 55" fill="none" xmlns="http://www.w3.org/2000/svg">
<path d="M97.2736 50.2643H93.4988V35.3053H97.2736V50.2643Z" fill="white"/>
<path d="M127.711 39.5921C127.555 39.5132 126.34 38.7934 124.535 38.7934C122.095 38.7934 120.401 40.4913 120.401 42.7833C120.401 45.0061 122.022 46.7769 124.535 46.7769C126.309 46.7769 127.544 46.0715 127.711 45.983V49.998C127.237 50.1295 125.947 50.5301 124.271 50.5301C120.025 50.5301 116.298 47.6031 116.298 42.7822C116.298 38.3164 119.67 35.0402 124.271 35.0402C126.04 35.0402 127.353 35.4707 127.711 35.5771V39.5921ZM88.3098 39.5921C88.1579 39.5132 86.9443 38.7934 85.1389 38.7934C82.6937 38.7934 81.0019 40.4913 81.0019 42.7833C81.0019 45.0061 82.6232 46.7769 85.1389 46.7769C86.9132 46.7769 88.1472 46.0715 88.3098 45.983V49.998C87.8411 50.1295 86.5521 50.5301 84.8663 50.5301C80.624 50.5301 76.9019 47.6031 76.9019 42.7822C76.9019 38.3164 80.2737 35.0402 84.8675 35.0402C86.6442 35.0402 87.9547 35.4707 88.3098 35.5771V39.5921ZM139.585 38.8496C137.345 38.8496 135.682 40.612 135.682 42.7833C135.682 44.9595 137.345 46.7207 139.585 46.7207C141.822 46.7207 143.49 44.9595 143.49 42.7833C143.49 40.612 141.822 38.8496 139.585 38.8496ZM147.489 42.7833C147.489 47.0626 144.186 50.5301 139.586 50.5301C134.984 50.5301 131.685 47.0627 131.685 42.7822C131.685 38.5113 134.985 35.0402 139.585 35.0402C144.186 35.0402 147.489 38.5112 147.489 42.7833ZM111.588 38.7062C111.532 38.6882 109.943 38.2494 108.637 38.2494C107.125 38.2494 106.302 38.7564 106.302 39.475C106.302 40.3861 107.412 40.7041 108.032 40.9002L109.074 41.2314C111.525 42.011 112.64 43.6885 112.64 45.5107C112.64 49.2687 109.336 50.5312 106.447 50.5312C104.439 50.5312 102.559 50.1606 102.373 50.1224V46.6788C102.706 46.7625 104.289 47.236 105.938 47.236C107.816 47.236 108.679 46.686 108.679 45.8395C108.679 45.0815 107.932 44.6438 106.996 44.3497C106.768 44.2731 106.424 44.1655 106.19 44.089C104.088 43.4242 102.335 42.1879 102.335 39.7129C102.335 36.915 104.43 35.0366 107.909 35.0366C109.747 35.0366 111.476 35.4826 111.588 35.5125V38.7062Z" fill="white"/>
<path d="M72.8988 19.2299C72.8988 18.1992 72.0571 17.3634 71.0252 17.3634C69.9933 17.3634 69.1504 18.1992 69.1504 19.2286V23.1564C69.1627 23.6453 69.3656 24.11 69.7158 24.4514C70.0659 24.7928 70.5356 24.9839 71.0246 24.9839C71.5136 24.9839 71.9833 24.7928 72.3334 24.4514C72.6836 24.11 72.8865 23.6453 72.8988 23.1564V19.2299ZM83.1923 14.0765C83.1923 13.5795 82.9949 13.1027 82.6434 12.7513C82.2919 12.3998 81.8152 12.2023 81.3181 12.2023C80.821 12.2023 80.3443 12.3998 79.9928 12.7513C79.6414 13.1027 79.4439 13.5795 79.4439 14.0765V23.1564C79.4439 23.6535 79.6414 24.1302 79.9928 24.4817C80.3443 24.8332 80.821 25.0307 81.3181 25.0307C81.8152 25.0307 82.2919 24.8332 82.6434 24.4817C82.9949 24.1302 83.1923 23.6535 83.1923 23.1564V14.0765ZM93.487 7.02448C93.487 5.99382 92.6453 5.15683 91.6134 5.15683C90.5804 5.15683 89.7386 5.99382 89.7386 7.02448V26.8881C89.7509 27.377 89.9538 27.8417 90.304 28.1831C90.6541 28.5245 91.1238 28.7156 91.6128 28.7156C92.1018 28.7156 92.5715 28.5245 92.9217 28.1831C93.2718 27.8417 93.4747 27.377 93.487 26.8881V7.02448ZM103.781 14.0765C103.781 13.5795 103.583 13.1027 103.232 12.7513C102.88 12.3998 102.403 12.2023 101.906 12.2023C101.409 12.2023 100.933 12.3998 100.581 12.7513C100.23 13.1027 100.032 13.5795 100.032 14.0765V23.1564C100.032 23.6535 100.23 24.1302 100.581 24.4817C100.933 24.8332 101.409 25.0307 101.906 25.0307C102.403 25.0307 102.88 24.8332 103.232 24.4817C103.583 24.1302 103.781 23.6535 103.781 23.1564V14.0765ZM114.063 19.2299C114.064 18.7354 113.868 18.261 113.518 17.911C113.169 17.561 112.695 17.364 112.2 17.3634C111.705 17.3631 111.229 17.5593 110.878 17.9089C110.527 18.2585 110.329 18.7331 110.327 19.2286V23.1564C110.327 23.6519 110.524 24.1271 110.874 24.4775C111.224 24.8278 111.7 25.0247 112.195 25.0247C112.691 25.0247 113.166 24.8278 113.516 24.4775C113.866 24.1271 114.063 23.6519 114.063 23.1564V19.2299ZM124.362 14.0765C124.349 13.5892 124.147 13.126 123.798 12.7857C123.449 12.4454 122.981 12.2549 122.493 12.2549C122.006 12.2549 121.538 12.4454 121.189 12.7857C120.84 13.126 120.637 13.5892 120.625 14.0765V23.1564C120.625 23.6519 120.822 24.1271 121.172 24.4775C121.523 24.8278 121.998 25.0247 122.493 25.0247C122.989 25.0247 123.464 24.8278 123.814 24.4775C124.165 24.1271 124.362 23.6519 124.362 23.1564V14.0765ZM134.662 7.02448C134.662 6.529 134.465 6.0538 134.115 5.70344C133.765 5.35308 133.289 5.15625 132.794 5.15625C132.299 5.15625 131.823 5.35308 131.473 5.70344C131.123 6.0538 130.926 6.529 130.926 7.02448V26.8881C130.915 27.1403 130.955 27.3921 131.044 27.6284C131.133 27.8647 131.268 28.0806 131.443 28.263C131.618 28.4454 131.827 28.5905 132.059 28.6897C132.292 28.7889 132.542 28.84 132.794 28.84C133.046 28.84 133.296 28.7889 133.529 28.6897C133.761 28.5905 133.97 28.4454 134.145 28.263C134.32 28.0806 134.455 27.8647 134.544 27.6284C134.633 27.3921 134.673 27.1403 134.662 26.8881V7.02448ZM144.961 14.0765C144.961 13.0447 144.125 12.2065 143.069 12.2065C142.574 12.2068 142.098 12.4038 141.748 12.7543C141.398 13.1047 141.201 13.5799 141.201 14.0753V23.1564C141.201 24.1931 142.038 25.0288 143.069 25.0288C144.125 25.0288 144.961 24.1931 144.961 23.1564V14.0765ZM155.24 19.2299C155.24 18.7339 155.043 18.2582 154.692 17.9075C154.341 17.5568 153.866 17.3598 153.37 17.3598C152.874 17.3598 152.398 17.5568 152.047 17.9075C151.697 18.2582 151.5 18.7339 151.5 19.2299V23.1564C151.5 24.1931 152.338 25.03 153.37 25.03C154.4 25.03 155.238 24.1931 155.238 23.1564L155.24 19.2299Z" fill="white"/>
<path d="M153.079 48.2942V48.5285H152.412V50.2634H152.137V48.5298H151.467V48.2942H153.079ZM153.219 48.2942H153.648L154.238 49.9096L154.818 48.2954H155.238V50.2634H154.957V48.6493L154.35 50.2634H154.091L153.507 48.6493H153.494V50.2634H153.219V48.2942Z" fill="white"/>
</svg>
