<svg width="220" height="55" viewBox="0 0 220 55" fill="none" xmlns="http://www.w3.org/2000/svg">
<path fill-rule="evenodd" clip-rule="evenodd" d="M89.8829 38.8921C82.1074 44.6333 70.8373 47.6965 61.1341 47.6965C47.5287 47.6965 35.2802 42.6555 26.0137 34.2711C25.2857 33.6119 25.938 32.7132 26.8115 33.2267C36.812 39.0555 49.1768 42.562 61.9496 42.562C70.5636 42.562 80.04 40.7767 88.753 37.0717C90.0693 36.5115 91.1701 37.9352 89.8829 38.8921Z" fill="white"/>
<path fill-rule="evenodd" clip-rule="evenodd" d="M93.1153 35.1871C92.1252 33.9152 86.5454 34.5862 84.041 34.8838C83.2782 34.9772 83.1615 34.3118 83.8489 33.8333C88.2927 30.7003 95.5848 31.6047 96.4353 32.6549C97.2855 33.7109 96.2138 41.0335 92.0379 44.5282C91.3971 45.065 90.7855 44.7793 91.071 44.0676C92.0085 41.7219 94.1113 36.465 93.1153 35.1871Z" fill="white"/>
<path fill-rule="evenodd" clip-rule="evenodd" d="M84.2159 11.7147V8.66906C84.2159 8.20816 84.5653 7.89903 84.9846 7.89903H98.596C99.0327 7.89903 99.3824 8.21394 99.3824 8.66906V11.2769C99.3764 11.7144 99.0094 12.2862 98.3572 13.1906L91.3038 23.2786C93.9249 23.2143 96.6914 23.6053 99.0678 24.9473C99.6035 25.2507 99.7492 25.694 99.7899 26.1317V29.3814C99.7899 29.825 99.3007 30.3442 98.7881 30.0758C94.6005 27.8763 89.0383 27.6371 84.4078 30.0992C83.9362 30.356 83.4412 29.8426 83.4412 29.399V26.3127C83.4412 25.8168 83.447 24.9707 83.942 24.2182L92.1136 12.4789H85.0021C84.5653 12.4789 84.2159 12.1696 84.2159 11.7147ZM34.5637 30.7178H30.4227C30.0266 30.6889 29.712 30.3911 29.6829 30.0119V8.72158C29.6829 8.29562 30.0383 7.95712 30.4809 7.95712H34.3424C34.7443 7.9747 35.0645 8.28382 35.0938 8.66906V11.4521H35.1693C36.177 8.76231 38.07 7.50801 40.6211 7.50801C43.2128 7.50801 44.8319 8.76231 45.9969 11.4521C46.9986 8.76231 49.2759 7.50801 51.7163 7.50801C53.4518 7.50801 55.3506 8.22552 56.5096 9.83589C57.8201 11.6272 57.5522 14.2293 57.5522 16.5106L57.5464 29.9478C57.5464 30.3736 57.191 30.7178 56.7484 30.7178H52.6132C52.1997 30.6889 51.8676 30.3562 51.8676 29.9478V18.6634C51.8676 17.7649 51.9492 15.5243 51.7512 14.6726C51.4424 13.2431 50.5165 12.8406 49.3166 12.8406C48.3146 12.8406 47.2665 13.5115 46.8413 14.5851C46.4161 15.6585 46.457 17.4556 46.457 18.6634V29.9476C46.457 30.3733 46.1015 30.7176 45.659 30.7176H41.5237C41.1045 30.6887 40.7781 30.356 40.7781 29.9476L40.7724 18.6634C40.7724 16.2888 41.1627 12.7938 38.2213 12.7938C35.2451 12.7938 35.3617 16.2011 35.3617 18.6634V29.9476C35.3617 30.3733 35.0062 30.7178 34.5637 30.7178ZM111.101 7.50801C117.245 7.50801 120.571 12.794 120.571 19.5155C120.571 26.0096 116.896 31.1614 111.101 31.1614C105.067 31.1614 101.782 25.8751 101.782 19.2879C101.782 12.6598 105.108 7.50801 111.101 7.50801ZM111.136 11.8547C108.084 11.8547 107.892 16.0206 107.892 18.6169C107.892 21.2191 107.851 26.7738 111.101 26.7738C114.31 26.7738 114.461 22.2927 114.461 19.5623C114.461 17.7652 114.386 15.618 113.844 13.9144C113.378 12.4322 112.452 11.8547 111.136 11.8547ZM128.539 30.7178H124.415C124.001 30.6889 123.669 30.3562 123.669 29.9478L123.663 8.65148C123.699 8.26046 124.042 7.95712 124.461 7.95712H128.3C128.661 7.9747 128.958 8.21973 129.039 8.55222V11.8081H129.115C130.274 8.89651 131.899 7.50801 134.759 7.50801C136.617 7.50801 138.428 8.17878 139.593 10.0168C140.676 11.7205 140.676 14.5854 140.676 16.6448V30.0469C140.63 30.4203 140.286 30.7178 139.878 30.7178H135.726C135.347 30.6889 135.032 30.4085 134.992 30.0469V18.4827C134.992 16.1548 135.26 12.7475 132.4 12.7475C131.392 12.7475 130.466 13.4241 130.006 14.4512C129.424 15.7522 129.348 17.0474 129.348 18.4827V29.9478C129.342 30.3736 128.981 30.7178 128.539 30.7178ZM143.268 29.0258C143.268 27.9522 144.183 27.0887 145.307 27.0887C146.431 27.0887 147.345 27.9522 147.345 29.0258C147.345 30.0936 146.431 30.9687 145.307 30.9687C144.183 30.9687 143.268 30.0936 143.268 29.0258ZM187.143 30.7236C186.712 30.7063 186.374 30.3736 186.374 29.9536V8.66305C186.397 8.28383 186.718 7.9865 187.114 7.96291H188.634C189.053 7.96291 189.391 8.26647 189.426 8.66305V11.7672C190.509 9.30489 192.524 7.3796 195.07 7.3796H195.378C198.081 7.3796 200.055 9.37499 200.789 12.2748C201.936 9.40993 204.091 7.3796 206.934 7.3796H207.248C209.257 7.3796 211.191 8.67485 212.193 10.6469C213.16 12.5314 213.125 15.0402 213.125 17.1467L213.119 29.9536C213.125 30.362 212.793 30.6947 212.379 30.7236H210.562C210.166 30.7063 209.846 30.4261 209.793 30.0586V17.1467C209.793 15.6238 209.869 14.0076 209.252 12.6189C208.623 11.2012 207.417 10.3144 206.124 10.2501C204.68 10.3202 203.352 11.3762 202.49 12.7998C201.371 14.6379 201.412 16.2948 201.412 18.4419V30.0702C201.36 30.4203 201.051 30.6945 200.672 30.7236H198.867C198.436 30.7063 198.092 30.3736 198.092 29.9536L198.081 16.2948C198.081 15.0402 198.005 13.5641 197.428 12.438C196.759 11.1545 195.559 10.3144 194.301 10.2503C192.996 10.326 191.68 11.3236 190.899 12.4847C189.892 13.9669 189.7 15.7989 189.7 17.6835V29.9536C189.7 30.362 189.368 30.6947 188.954 30.7236H187.143ZM174.667 31.1672C168.79 31.1672 166.158 25.1634 166.158 19.1597C166.158 12.8466 169.25 7.3796 175.168 7.3796H175.483C181.237 7.3796 184.102 13.2024 184.102 19.2062C184.102 25.566 180.928 31.1672 174.976 31.1672H174.667ZM175.098 28.2558C177.032 28.1914 178.558 26.9894 179.461 24.9883C180.27 23.1912 180.427 21.1315 180.427 19.1597C180.427 17.0125 180.194 14.7721 179.187 12.934C178.284 11.3294 176.735 10.3086 175.092 10.2501C173.263 10.3144 171.627 11.5571 170.805 13.4708C170.066 15.1279 169.839 17.3276 169.839 19.1597C169.839 21.2191 170.107 23.5996 170.957 25.3911C171.784 27.0887 173.374 28.1914 175.098 28.2558ZM156.303 28.1623C158.942 28.0806 160.328 25.9626 160.899 23.2203C161.015 22.8763 161.277 22.6137 161.661 22.6137L163.403 22.6079C163.816 22.6252 164.195 22.9404 164.16 23.3254C163.356 27.9989 160.543 31.1672 156.536 31.1672H156.221C150.386 31.1672 147.869 25.2976 147.869 19.3404C147.869 13.4301 150.42 7.3796 156.257 7.3796H156.571C160.625 7.3796 163.513 10.5069 164.142 15.1805C164.142 15.5305 163.816 15.8339 163.432 15.8748L161.609 15.8514C161.225 15.7989 160.974 15.4722 160.916 15.1046C160.479 12.4963 158.982 10.4194 156.489 10.3375C152.523 10.4659 151.393 15.3554 151.393 19.1187C151.393 22.7418 152.337 28.0341 156.303 28.1623ZM73.365 20.5484C73.365 22.1643 73.4059 23.5121 72.5906 24.9475C71.9323 26.1144 70.8839 26.8321 69.7249 26.8321C68.135 26.8321 67.203 25.6185 67.203 23.8272C67.203 20.2916 70.3656 19.6497 73.3652 19.6497L73.365 20.5484ZM77.5411 30.6595C77.2674 30.9046 76.8713 30.9221 76.5628 30.7588C75.188 29.6151 74.9377 29.0841 74.1863 27.9932C71.915 30.3152 70.3017 31.0096 67.3603 31.0096C63.8715 31.0096 61.1632 28.8566 61.1632 24.5449C61.1632 21.1784 62.9804 18.8855 65.5781 17.7652C67.8264 16.7732 70.9655 16.5981 73.3652 16.3239V15.7871C73.3652 14.8012 73.4408 13.6342 72.8585 12.7825C72.3575 12.018 71.3907 11.7031 70.5347 11.7031C68.956 11.7031 67.5525 12.5141 67.209 14.1943C67.139 14.5678 66.8653 14.9354 66.4865 14.9528L62.4737 14.521C62.136 14.4454 61.7572 14.171 61.8563 13.6518C62.7765 8.7741 67.1797 7.30371 71.117 7.30371C73.132 7.30371 75.7645 7.8405 77.3547 9.36898C79.3699 11.2538 79.1778 13.7684 79.1778 16.5049V22.9695C79.1778 24.9124 79.9815 25.7643 80.7387 26.8145C81.0008 27.188 81.059 27.6373 80.7211 27.9173C79.8767 28.6232 78.374 29.936 77.5469 30.6711L77.5411 30.6595ZM19.0768 20.5484C19.0768 22.1643 19.1177 23.5121 18.3024 24.9475C17.6441 26.1144 16.6015 26.8321 15.4365 26.8321C13.8468 26.8321 12.9206 25.6185 12.9206 23.8272C12.9206 20.2916 16.0832 19.6497 19.0768 19.6497V20.5484ZM23.253 30.6595C22.9793 30.9046 22.5832 30.9221 22.2744 30.7588C20.8999 29.6151 20.6553 29.0841 19.8981 27.9932C17.6266 30.3152 16.0193 31.0096 13.0721 31.0096C9.58911 31.0096 6.875 28.8566 6.875 24.5449C6.875 21.1784 8.69803 18.8855 11.2897 17.7652C13.538 16.7732 16.6773 16.5981 19.0768 16.3239V15.7871C19.0768 14.8012 19.1526 13.6342 18.5761 12.7825C18.0693 12.018 17.1025 11.7031 16.2523 11.7031C14.6736 11.7031 13.2643 12.5141 12.9206 14.1943C12.8508 14.5678 12.5769 14.9354 12.2044 14.9528L8.18551 14.521C7.84783 14.4454 7.47483 14.171 7.56791 13.6518C8.49431 8.7741 12.8915 7.30371 16.8288 7.30371C18.8438 7.30371 21.4764 7.8405 23.0666 9.36898C25.0818 11.2538 24.8896 13.7684 24.8896 16.5049V22.9695C24.8896 24.9124 25.6934 25.7643 26.4505 26.8145C26.7184 27.188 26.7766 27.6373 26.4387 27.9173C25.5943 28.6232 24.0916 29.936 23.2645 30.6711L23.253 30.6595Z" fill="white"/>
</svg>
