<svg width="220" height="55" viewBox="0 0 220 55" fill="none" xmlns="http://www.w3.org/2000/svg">
<path d="M63.0461 12.1143C61.3049 10.9144 59.0327 10.3129 56.2297 10.3129H45.3776C44.5183 10.3129 44.0436 10.7437 43.9534 11.6045L39.5451 39.3445C39.4993 39.617 39.5673 39.8661 39.7485 40.0927C39.9286 40.3196 40.1552 40.4325 40.4266 40.4325H45.5812C46.4853 40.4325 46.9822 40.0027 47.0735 39.1409L48.2941 31.6622C48.3387 31.2998 48.4977 31.0051 48.7691 30.7781C49.0402 30.5516 49.3794 30.4034 49.7864 30.3357C50.1933 30.2683 50.5771 30.2343 50.9394 30.2343C51.3008 30.2343 51.7301 30.2573 52.2283 30.3024C52.7252 30.3475 53.042 30.3698 53.1778 30.3698C57.0662 30.3698 60.1182 29.2714 62.3342 27.0723C64.5491 24.8743 65.6579 21.8264 65.6579 17.9273C65.6579 15.253 64.7865 13.3155 63.0461 12.1137V12.1143ZM57.4509 20.4438C57.2241 22.0305 56.637 23.0725 55.6875 23.5713C54.7378 24.0707 53.3814 24.3192 51.6182 24.3192L49.3798 24.387L50.5331 17.1118C50.6231 16.6136 50.9168 16.3643 51.4146 16.3643H52.7037C54.5114 16.3643 55.8235 16.6255 56.6374 17.1459C57.4509 17.6675 57.7223 18.7671 57.4509 20.4438Z" fill="white"/>
<path d="M177.568 10.3125H172.55C172.051 10.3125 171.757 10.5619 171.668 11.0609L167.259 39.3454L167.191 39.4813C167.191 39.709 167.281 39.9233 167.463 40.1274C167.643 40.3311 167.87 40.4331 168.141 40.4331H172.618C173.475 40.4331 173.95 40.0033 174.042 39.1415L178.451 11.3329V11.2654C178.45 10.6305 178.156 10.3133 177.568 10.3133V10.3125Z" fill="white"/>
<path d="M116.933 21.2605C116.933 21.0344 116.842 20.8187 116.663 20.6152C116.481 20.4114 116.278 20.3087 116.052 20.3087H110.83C110.331 20.3087 109.924 20.5365 109.608 20.9885L102.419 31.5955L99.4348 21.3969C99.2076 20.6722 98.7109 20.3087 97.9428 20.3087H92.8551C92.6285 20.3087 92.4251 20.411 92.2454 20.6152C92.064 20.8187 91.974 21.0348 91.974 21.2605C91.974 21.3518 92.415 22.6885 93.2965 25.2721C94.1779 27.8566 95.1274 30.6443 96.1449 33.6361C97.1624 36.6273 97.6934 38.2146 97.7388 38.3944C94.0308 43.4719 92.1776 46.1914 92.1776 46.5534C92.1776 47.1432 92.4709 47.4375 93.0593 47.4375H98.2817C98.7789 47.4375 99.1856 47.2114 99.5028 46.7579L116.798 21.7362C116.888 21.6465 116.933 21.4885 116.933 21.2603V21.2605Z" fill="white"/>
<path d="M165.565 20.3087H160.41C159.776 20.3087 159.393 21.0569 159.257 22.553C158.08 20.7404 155.934 19.8328 152.813 19.8328C149.558 19.8328 146.788 21.0569 144.505 23.5046C142.221 25.9523 141.08 28.8315 141.08 32.14C141.08 34.8148 141.86 36.945 143.419 38.5309C144.979 40.1184 147.07 40.9107 149.694 40.9107C151.005 40.9107 152.339 40.6382 153.695 40.0948C155.052 39.5509 156.113 38.826 156.884 37.9191C156.884 37.9646 156.837 38.1678 156.748 38.5303C156.657 38.8936 156.612 39.1664 156.612 39.3462C156.612 40.0723 156.905 40.4339 157.494 40.4339H162.174C163.032 40.4339 163.53 40.0041 163.665 39.1423L166.447 21.3964C166.491 21.1242 166.424 20.8754 166.243 20.6485C166.061 20.4224 165.836 20.3087 165.565 20.3087ZM156.714 33.7036C155.561 34.8369 154.17 35.4032 152.542 35.4032C151.23 35.4032 150.169 35.0412 149.354 34.3155C148.54 33.5918 148.133 32.5945 148.133 31.3239C148.133 29.648 148.698 28.2302 149.829 27.0745C150.958 25.9186 152.361 25.3409 154.034 25.3409C155.299 25.3409 156.351 25.7148 157.188 26.4623C158.024 27.2105 158.443 28.2417 158.443 29.5566C158.443 31.1882 157.866 32.571 156.714 33.7036Z" fill="white"/>
<path d="M88.5146 20.3087H83.3597C82.7257 20.3087 82.3422 21.0569 82.2064 22.553C80.9856 20.7404 78.8376 19.8328 75.7629 19.8328C72.5073 19.8328 69.7374 21.0569 67.4542 23.5046C65.1705 25.9523 64.0292 28.8315 64.0292 32.14C64.0292 34.8148 64.8093 36.945 66.3694 38.5309C67.9294 40.1184 70.0201 40.9107 72.6431 40.9107C73.9085 40.9107 75.2206 40.6382 76.5768 40.0948C77.9333 39.5509 79.0186 38.826 79.8325 37.9191C79.6511 38.4625 79.5611 38.9386 79.5611 39.3462C79.5611 40.0723 79.8549 40.4339 80.4428 40.4339H85.1227C85.9812 40.4339 86.4792 40.0041 86.6149 39.1423L89.3956 21.3964C89.4402 21.1242 89.3726 20.8754 89.1923 20.6485C89.0113 20.4224 88.7855 20.3087 88.5146 20.3087ZM79.6633 33.7373C78.51 34.8491 77.0964 35.4032 75.4244 35.4032C74.1123 35.4032 73.061 35.0412 72.2703 34.3155C71.4786 33.5918 71.0832 32.5945 71.0832 31.3239C71.0832 29.648 71.6482 28.2302 72.7791 27.0745C73.9087 25.9186 75.3106 25.3407 76.9842 25.3407C78.2497 25.3407 79.3009 25.7148 80.1383 26.4623C80.9742 27.2105 81.3929 28.2417 81.3929 29.5566C81.3927 31.2337 80.8164 32.6279 79.6633 33.7373Z" fill="white"/>
<path d="M140.096 12.1143C138.355 10.9144 136.084 10.3129 133.28 10.3129H122.495C121.591 10.3129 121.093 10.7437 121.003 11.6045L116.595 39.3445C116.549 39.617 116.617 39.8661 116.798 40.0927C116.978 40.3196 117.205 40.4325 117.476 40.4325H123.038C123.58 40.4325 123.942 40.1382 124.123 39.5488L125.344 31.6622C125.389 31.2998 125.547 31.0051 125.819 30.7781C126.09 30.5516 126.429 30.4034 126.836 30.3357C127.243 30.2683 127.627 30.2343 127.989 30.2343C128.351 30.2343 128.78 30.2573 129.278 30.3024C129.775 30.3475 130.092 30.3698 130.227 30.3698C134.116 30.3698 137.168 29.2714 139.384 27.0723C141.6 24.8743 142.707 21.8264 142.707 17.9273C142.708 15.253 141.837 13.3153 140.096 12.1137V12.1143ZM133.144 23.2991C132.149 23.9788 130.657 24.3186 128.668 24.3186L126.497 24.3868L127.65 17.1114C127.74 16.6134 128.034 16.3636 128.532 16.3636H129.752C130.747 16.3636 131.538 16.4091 132.127 16.4996C132.714 16.5906 133.28 16.8734 133.822 17.3491C134.365 17.8252 134.636 18.5169 134.636 19.423C134.636 21.3274 134.138 22.6186 133.144 23.2991Z" fill="white"/>
</svg>
