<svg width="124" height="22" viewBox="0 0 124 22" fill="none" xmlns="http://www.w3.org/2000/svg">
<path d="M36.4284 7.79972C36.1044 7.17572 35.6544 6.70772 35.0784 6.39572C34.5024 6.07172 33.8364 5.90972 33.0804 5.90972C32.2524 5.90972 31.5144 6.09572 30.8664 6.46772C30.2184 6.83972 29.7084 7.36772 29.3364 8.05172C28.9764 8.73572 28.7964 9.52772 28.7964 10.4277C28.7964 11.3277 28.9764 12.1257 29.3364 12.8217C29.7084 13.5057 30.2184 14.0337 30.8664 14.4057C31.5144 14.7777 32.2524 14.9637 33.0804 14.9637C34.1964 14.9637 35.1024 14.6517 35.7984 14.0277C36.4944 13.4037 36.9204 12.5577 37.0764 11.4897H32.3784V9.85172H39.2724V11.4537C39.1404 12.4257 38.7924 13.3197 38.2284 14.1357C37.6764 14.9517 36.9504 15.6057 36.0504 16.0977C35.1624 16.5777 34.1724 16.8177 33.0804 16.8177C31.9044 16.8177 30.8304 16.5477 29.8584 16.0077C28.8864 15.4557 28.1124 14.6937 27.5364 13.7217C26.9724 12.7497 26.6904 11.6517 26.6904 10.4277C26.6904 9.20372 26.9724 8.10572 27.5364 7.13372C28.1124 6.16172 28.8864 5.40572 29.8584 4.86572C30.8424 4.31372 31.9164 4.03772 33.0804 4.03772C34.4124 4.03772 35.5944 4.36772 36.6264 5.02772C37.6704 5.67572 38.4264 6.59972 38.8944 7.79972H36.4284ZM43.1682 8.23172C43.4682 7.72772 43.8642 7.33772 44.3562 7.06172C44.8602 6.77372 45.4542 6.62972 46.1382 6.62972V8.75372H45.6162C44.8122 8.75372 44.2002 8.95772 43.7802 9.36572C43.3722 9.77372 43.1682 10.4817 43.1682 11.4897V16.7097H41.1162V6.79172H43.1682V8.23172ZM56.9344 11.5077C56.9344 11.8797 56.9104 12.2157 56.8624 12.5157H49.2844C49.3444 13.3077 49.6384 13.9437 50.1664 14.4237C50.6944 14.9037 51.3424 15.1437 52.1104 15.1437C53.2144 15.1437 53.9944 14.6817 54.4504 13.7577H56.6644C56.3644 14.6697 55.8184 15.4197 55.0264 16.0077C54.2464 16.5837 53.2744 16.8717 52.1104 16.8717C51.1624 16.8717 50.3104 16.6617 49.5544 16.2417C48.8104 15.8097 48.2224 15.2097 47.7904 14.4417C47.3704 13.6617 47.1604 12.7617 47.1604 11.7417C47.1604 10.7217 47.3644 9.82772 47.7724 9.05972C48.1924 8.27972 48.7744 7.67972 49.5184 7.25972C50.2744 6.83972 51.1384 6.62972 52.1104 6.62972C53.0464 6.62972 53.8804 6.83372 54.6124 7.24172C55.3444 7.64972 55.9144 8.22572 56.3224 8.96972C56.7304 9.70172 56.9344 10.5477 56.9344 11.5077ZM54.7924 10.8597C54.7804 10.1037 54.5104 9.49772 53.9824 9.04172C53.4544 8.58572 52.8004 8.35772 52.0204 8.35772C51.3124 8.35772 50.7064 8.58572 50.2024 9.04172C49.6984 9.48572 49.3984 10.0917 49.3024 10.8597H54.7924ZM67.8638 11.5077C67.8638 11.8797 67.8398 12.2157 67.7918 12.5157H60.2138C60.2738 13.3077 60.5678 13.9437 61.0958 14.4237C61.6238 14.9037 62.2718 15.1437 63.0398 15.1437C64.1438 15.1437 64.9238 14.6817 65.3798 13.7577H67.5938C67.2938 14.6697 66.7478 15.4197 65.9558 16.0077C65.1758 16.5837 64.2038 16.8717 63.0398 16.8717C62.0918 16.8717 61.2398 16.6617 60.4838 16.2417C59.7398 15.8097 59.1518 15.2097 58.7198 14.4417C58.2998 13.6617 58.0898 12.7617 58.0898 11.7417C58.0898 10.7217 58.2938 9.82772 58.7018 9.05972C59.1218 8.27972 59.7038 7.67972 60.4478 7.25972C61.2038 6.83972 62.0678 6.62972 63.0398 6.62972C63.9758 6.62972 64.8098 6.83372 65.5418 7.24172C66.2738 7.64972 66.8438 8.22572 67.2518 8.96972C67.6598 9.70172 67.8638 10.5477 67.8638 11.5077ZM65.7218 10.8597C65.7098 10.1037 65.4398 9.49772 64.9118 9.04172C64.3838 8.58572 63.7298 8.35772 62.9498 8.35772C62.2418 8.35772 61.6358 8.58572 61.1318 9.04172C60.6278 9.48572 60.3278 10.0917 60.2318 10.8597H65.7218ZM74.7072 6.62972C75.4872 6.62972 76.1832 6.79172 76.7952 7.11572C77.4192 7.43972 77.9052 7.91972 78.2532 8.55572C78.6012 9.19172 78.7752 9.95972 78.7752 10.8597V16.7097H76.7412V11.1657C76.7412 10.2777 76.5192 9.59972 76.0752 9.13172C75.6312 8.65172 75.0252 8.41172 74.2572 8.41172C73.4892 8.41172 72.8772 8.65172 72.4212 9.13172C71.9772 9.59972 71.7552 10.2777 71.7552 11.1657V16.7097H69.7032V6.79172H71.7552V7.92572C72.0912 7.51772 72.5172 7.19972 73.0332 6.97172C73.5612 6.74372 74.1192 6.62972 74.7072 6.62972ZM89.2946 4.19972V5.87372H85.9646V16.7097H83.9126V5.87372H80.5646V4.19972H89.2946ZM93.2448 8.23172C93.5448 7.72772 93.9408 7.33772 94.4328 7.06172C94.9368 6.77372 95.5308 6.62972 96.2148 6.62972V8.75372H95.6928C94.8888 8.75372 94.2768 8.95772 93.8568 9.36572C93.4488 9.77372 93.2448 10.4817 93.2448 11.4897V16.7097H91.1928V6.79172H93.2448V8.23172ZM98.965 5.47772C98.593 5.47772 98.281 5.35172 98.029 5.09972C97.777 4.84772 97.651 4.53572 97.651 4.16372C97.651 3.79172 97.777 3.47972 98.029 3.22772C98.281 2.97572 98.593 2.84972 98.965 2.84972C99.325 2.84972 99.631 2.97572 99.883 3.22772C100.135 3.47972 100.261 3.79172 100.261 4.16372C100.261 4.53572 100.135 4.84772 99.883 5.09972C99.631 5.35172 99.325 5.47772 98.965 5.47772ZM99.973 6.79172V16.7097H97.921V6.79172H99.973ZM104.539 8.26772C104.887 7.78772 105.361 7.39772 105.961 7.09772C106.573 6.78572 107.251 6.62972 107.995 6.62972C108.871 6.62972 109.663 6.83972 110.371 7.25972C111.079 7.67972 111.637 8.27972 112.045 9.05972C112.453 9.82772 112.657 10.7097 112.657 11.7057C112.657 12.7017 112.453 13.5957 112.045 14.3877C111.637 15.1677 111.073 15.7797 110.353 16.2237C109.645 16.6557 108.859 16.8717 107.995 16.8717C107.227 16.8717 106.543 16.7217 105.943 16.4217C105.355 16.1217 104.887 15.7377 104.539 15.2697V16.7097H102.487V3.38972H104.539V8.26772ZM110.569 11.7057C110.569 11.0217 110.425 10.4337 110.137 9.94172C109.861 9.43772 109.489 9.05972 109.021 8.80772C108.565 8.54372 108.073 8.41172 107.545 8.41172C107.029 8.41172 106.537 8.54372 106.069 8.80772C105.613 9.07172 105.241 9.45572 104.953 9.95972C104.677 10.4637 104.539 11.0577 104.539 11.7417C104.539 12.4257 104.677 13.0257 104.953 13.5417C105.241 14.0457 105.613 14.4297 106.069 14.6937C106.537 14.9577 107.029 15.0897 107.545 15.0897C108.073 15.0897 108.565 14.9577 109.021 14.6937C109.489 14.4177 109.861 14.0217 110.137 13.5057C110.425 12.9897 110.569 12.3897 110.569 11.7057ZM123.596 11.5077C123.596 11.8797 123.572 12.2157 123.524 12.5157H115.946C116.006 13.3077 116.3 13.9437 116.828 14.4237C117.356 14.9037 118.004 15.1437 118.772 15.1437C119.876 15.1437 120.656 14.6817 121.112 13.7577H123.326C123.026 14.6697 122.48 15.4197 121.688 16.0077C120.908 16.5837 119.936 16.8717 118.772 16.8717C117.824 16.8717 116.972 16.6617 116.216 16.2417C115.472 15.8097 114.884 15.2097 114.452 14.4417C114.032 13.6617 113.822 12.7617 113.822 11.7417C113.822 10.7217 114.026 9.82772 114.434 9.05972C114.854 8.27972 115.436 7.67972 116.18 7.25972C116.936 6.83972 117.8 6.62972 118.772 6.62972C119.708 6.62972 120.542 6.83372 121.274 7.24172C122.006 7.64972 122.576 8.22572 122.984 8.96972C123.392 9.70172 123.596 10.5477 123.596 11.5077ZM121.454 10.8597C121.442 10.1037 121.172 9.49772 120.644 9.04172C120.116 8.58572 119.462 8.35772 118.682 8.35772C117.974 8.35772 117.368 8.58572 116.864 9.04172C116.36 9.48572 116.06 10.0917 115.964 10.8597H121.454Z" fill="black"/>
<path d="M20.1232 7.37792L7.26702 7.35499C7.27275 3.8045 10.159 0.935501 13.7037 0.941228C17.2542 0.946955 20.1232 3.83316 20.1175 7.37792H20.1232Z" fill="#E0845C"/>
<path d="M0.00574181 7.22334C0.00574181 4.44022 1.655 2.04078 4.02009 0.935547L9.49472 0.947011C7.37015 2.2355 5.94423 4.56621 5.9385 7.23481C5.9385 9.89195 7.34152 12.2284 9.45463 13.5226L3.97428 13.5111C1.62064 12.3945 -0.00571153 9.99502 1.50749e-05 7.22334H0.00574181Z" fill="#367D4C"/>
<path d="M0.0055144 14.3472L12.8617 14.3701C12.856 17.9206 9.9698 20.7896 6.42503 20.7838C2.87454 20.7781 0.00551453 17.8919 0.0112411 14.3472H0.0055144Z" fill="#367D4C"/>
<path d="M20.1231 14.5018C20.1231 17.2849 18.4738 19.6843 16.1087 20.7896L10.6341 20.7781C12.7587 19.4896 14.1846 17.1589 14.1903 14.4903C14.1903 11.8332 12.7873 9.49674 10.6742 8.20252L16.1546 8.21399C18.5082 9.33068 20.1345 11.7301 20.1288 14.5018H20.1231Z" fill="#367D4C"/>
</svg>
